P1
# Created by GIMP version 2.10.22 PNM plug-in
8 8
0000000000100100001001000010010000000000010000100010010000011000